:SAMPLES-PER-SECOND 30
:FULLY-SPECIFIED
:DEGREES
412
root  -3.30489 40.7892 1.99533 176.124 -50.4626 -176.656
RightUpLeg  -2.40611 3.07218 0.842411
RightLeg  -0.849925 11.0494 -1.46203
RightFoot  4.20942 -0.688296 5.2482
RightToes  -3.10678e-008 1.75238e-005 3.56266e-009
Spine  14.5836 -11.3759 -15.8185
Spine1  -12.7298 -14.2417 23.2987
HEad  -7.18004 -6.31531 1.31571
LeftShoulder1  1.09975 -1.03972 -17.5613
LeftArm  -14.18 -31.9178 -53.3074
LeftForeArm  107.259 -80.4665 -94.5671
LeftHand  -0.557118 -5.99839 6.00244
RightShoulder  0.287587 -2.22174 16.0569
RightArm  5.44033 -27.1459 45.5398
RightForeArm  39.9615 73.3725 35.9219
RightHand  -0.248463 7.71974 -2.56463
LeftUpLeg  6.94172 2.85885 -0.267406
LeftLeg  -4.39061 55.0686 -4.25687
LeftFoot  -2.37025 0.162543 -1.82551
LeftToes  4.7643e-008 1.47522e-008 1.32869e-009
413
root  -3.3104 40.7861 1.97355 176.423 -49.3908 -176.888
RightUpLeg  -2.67683 3.28569 0.907082
RightLeg  -0.705851 11.8529 -1.6283
RightFoot  4.11406 -0.724031 5.5384
RightToes  -3.10678e-008 1.75238e-005 3.56266e-009
Spine  14.6945 -11.3419 -15.8577
Spine1  -12.9835 -14.1751 23.5482
HEad  -7.12585 -6.91121 1.20323
LeftShoulder1  1.12924 -1.13958 -17.6795
LeftArm  -14.1076 -31.621 -53.337
LeftForeArm  108.566 -80.4593 -95.6854
LeftHand  -0.543069 -5.72645 5.98939
RightShoulder  0.270251 -2.30239 16.1186
RightArm  5.43363 -27.2446 45.7367
RightForeArm  39.5348 73.2678 35.6863
RightHand  -0.249216 7.80423 -2.55808
LeftUpLeg  6.92816 2.97449 -0.318628
LeftLeg  -4.46006 55.9735 -4.51657
LeftFoot  -2.44491 0.171831 -1.95699
LeftToes  4.7643e-008 1.47522e-008 1.32869e-009
414
root  -3.29411 40.7829 1.94917 176.578 -48.8848 -176.934
RightUpLeg  -2.91661 3.34261 0.963876
RightLeg  -0.601315 12.3213 -1.60072
RightFoot  4.16928 -0.731169 5.5737
RightToes  -3.10678e-008 1.75238e-005 3.56266e-009
Spine  14.3018 -11.171 -15.4012
Spine1  -12.4585 -14.0026 22.9325
HEad  -7.6362 -7.62535 1.32109
LeftShoulder1  1.04124 -0.853995 -17.2189
LeftArm  -14.2068 -31.8482 -54.0003
LeftForeArm  109.076 -80.4339 -96.4564
LeftHand  -0.547682 -5.73492 6.03347
RightShoulder  0.359466 -1.96985 17.101
RightArm  5.52939 -26.8858 45.3276
RightForeArm  39.5284 73.2422 35.6087
RightHand  -0.293717 7.81256 -2.94774
LeftUpLeg  6.75885 2.9668 -0.335127
LeftLeg  -4.21109 56.498 -4.30478
LeftFoot  -2.51168 0.184773 -2.14425
LeftToes  4.7643e-008 1.47522e-008 1.32869e-009
415
root  -3.25413 40.7866 1.89794 176.605 -48.7301 -176.919
RightUpLeg  -2.97787 3.19138 0.964931
RightLeg  -0.629671 12.6407 -1.39499
RightFoot  4.23515 -0.750005 5.69071
RightToes  -3.10678e-008 1.75238e-005 3.56266e-009
Spine  13.8231 -10.5994 -15.1845
Spine1  -11.8252 -13.4984 22.7433
HEad  -8.07316 -8.00589 1.64067
LeftShoulder1  0.992135 -0.663908 -17.121
LeftArm  -14.8955 -31.6039 -54.145
LeftForeArm  109.675 -80.4095 -97.251
LeftHand  -0.519033 -5.78288 5.71296
RightShoulder  0.441482 -1.66705 17.6811
RightArm  5.11309 -25.9056 45.5522
RightForeArm  38.9431 72.859 34.5526
RightHand  -0.268522 7.86939 -2.71702
LeftUpLeg  6.62649 3.11805 -0.161492
LeftLeg  -3.74731 56.5157 -4.02301
LeftFoot  -2.65901 0.197657 -2.33143
LeftToes  4.7643e-008 1.47522e-008 1.32869e-009
416
root  -3.20742 40.8004 1.82453 176.694 -48.9907 -176.993
RightUpLeg  -2.93782 2.79763 0.810631
RightLeg  -0.739465 12.8155 -1.08726
RightFoot  4.27272 -0.76959 5.82165
RightToes  -3.10678e-008 1.75238e-005 3.56266e-009
Spine  13.6051 -9.75631 -14.8093
Spine1  -11.8858 -12.567 22.402
HEad  -8.48689 -9.32729 1.52252
LeftShoulder1  1.04169 -0.829076 -17.3814
LeftArm  -15.4449 -30.4192 -53.6253
LeftForeArm  110.165 -80.3787 -98.0357
LeftHand  -0.52541 -5.53047 5.9008
RightShoulder  0.515676 -1.40443 18.2469
RightArm  4.68104 -24.7004 45.6394
RightForeArm  38.8001 72.6671 34.0159
RightHand  -0.232283 7.85036 -2.40423
LeftUpLeg  6.59372 3.12191 -0.0668822
LeftLeg  -3.76495 56.2433 -4.04588
LeftFoot  -2.63802 0.192177 -2.2331
LeftToes  4.7643e-008 1.47522e-008 1.32869e-009
417
root  -3.15414 40.8158 1.73341 176.647 -49.6535 -176.872
RightUpLeg  -2.74665 2.67807 0.87008
RightLeg  -1.08141 12.4239 -0.989602
RightFoot  4.47465 -0.769943 5.75807
RightToes  -3.10678e-008 1.75238e-005 3.56266e-009
Spine  13.4973 -8.92394 -14.4705
Spine1  -12.1392 -11.6454 22.3763
HEad  -8.6171 -10.7054 1.16885
LeftShoulder1  1.02963 -0.712056 -17.7849
LeftArm  -15.9645 -28.2464 -52.9179
LeftForeArm  110.223 -80.3227 -98.8669
LeftHand  -0.52267 -5.17647 6.04628
RightShoulder  0.551461 -1.28473 18.4868
RightArm  4.16227 -22.4841 45.8829
RightForeArm  38.3465 72.7575 34.3937
RightHand  -0.270113 7.75976 -2.74912
LeftUpLeg  6.4772 3.12676 0.150687
LeftLeg  -3.57021 55.5507 -3.79067
LeftFoot  -2.66539 0.19498 -2.26289
LeftToes  4.7643e-008 1.47522e-008 1.32869e-009
418
root  -3.11949 40.8352 1.63949 176.858 -50.3701 -176.847
RightUpLeg  -2.8289 2.65983 0.891531
RightLeg  -1.22657 11.9007 -0.977909
RightFoot  4.61626 -0.797309 5.90947
RightToes  -3.10678e-008 1.75238e-005 3.56266e-009
Spine  12.7146 -8.49197 -13.2659
Spine1  -11.9877 -10.9247 20.5004
HEad  -8.22651 -11.8077 2.2029
LeftShoulder1  0.991242 -0.655404 -17.15
LeftArm  -16.1896 -24.8278 -52.3798
LeftForeArm  109.833 -80.3584 -98.1079
LeftHand  -0.546103 -5.42946 6.17162
RightShoulder  0.695444 -0.788433 19.326
RightArm  3.12319 -19.7515 45.9369
RightForeArm  39.7017 73.3946 36.0545
RightHand  -0.278787 7.76982 -2.82312
LeftUpLeg  6.37911 2.97755 0.236629
LeftLeg  -4.1236 54.9984 -4.12368
LeftFoot  -2.54987 0.192284 -2.20576
LeftToes  4.7643e-008 1.47522e-008 1.32869e-009
419
root  -3.08109 40.8479 1.53572 177.165 -51.1253 -176.71
RightUpLeg  -3.18791 2.59637 0.943084
RightLeg  -1.21459 11.3562 -0.775358
RightFoot  4.76511 -0.761062 5.60477
RightToes  -3.10678e-008 1.75238e-005 3.56266e-009
Spine  12.0063 -7.96644 -12.5032
Spine1  -12.1344 -10.1695 19.6402
HEad  -8.22102 -13.4798 2.07586
LeftShoulder1  1.02455 -0.76303 -17.3472
LeftArm  -16.5015 -20.4709 -50.9105
LeftForeArm  109.083 -80.3137 -98.2385
LeftHand  -0.539133 -5.11324 6.25911
RightShoulder  0.667848 -0.886585 19.2221
RightArm  2.39262 -15.7657 46.2713
RightForeArm  42.1471 74.3565 38.9245
RightHand  -0.361376 7.66859 -3.57303
LeftUpLeg  5.81787 3.06691 0.548432
LeftLeg  -3.66298 54.1341 -3.80048
LeftFoot  -2.56 0.204723 -2.38183
LeftToes  4.7643e-008 1.47522e-008 1.32869e-009
420
root  -3.07023 40.866 1.42538 177.46 -51.8586 -176.696
RightUpLeg  -3.40379 2.54251 0.939674
RightLeg  -1.18244 10.8251 -0.690312
RightFoot  4.78625 -0.778181 5.71912
RightToes  -3.10678e-008 1.75238e-005 3.56266e-009
Spine  12.0367 -7.78353 -11.6878
Spine1  -13.1794 -9.65127 18.6286
HEad  -8.22297 -14.794 2.30257
LeftShoulder1  0.934994 -0.435281 -17.0336
LeftArm  -16.3878 -14.5456 -49.7291
LeftForeArm  110.554 -80.2467 -100.101
LeftHand  -0.502215 -4.83531 5.99947
RightShoulder  0.7375 -0.575517 18.829
RightArm  1.4873 -11.7218 46.3745
RightForeArm  46.5723 75.8697 44.6458
RightHand  -0.261404 7.832 -2.66155
LeftUpLeg  5.66224 2.95014 0.650517
LeftLeg  -4.13408 53.5273 -4.06349
LeftFoot  -2.32461 0.212346 -2.48009
LeftToes  4.7643e-008 1.47522e-008 1.32869e-009
421
root  -3.06837 40.8871 1.32207 177.637 -52.6358 -176.639
RightUpLeg  -3.38979 2.43089 0.926541
RightLeg  -1.40908 10.2883 -0.614982
RightFoot  4.86752 -0.794032 5.80554
RightToes  -3.10678e-008 1.75238e-005 3.56266e-009
Spine  11.4134 -7.78635 -10.4824
Spine1  -12.9049 -9.44849 16.7852
HEad  -8.41975 -14.9581 2.48283
LeftShoulder1  0.824361 -0.0495258 -16.4646
LeftArm  -16.2819 -9.62833 -48.8666
LeftForeArm  109.797 -80.2848 -99.1138
LeftHand  -0.521896 -4.59218 6.35738
RightShoulder  0.750456 -0.467785 18.315
RightArm  -0.703018 -7.44677 47.1578
RightForeArm  51.3856 77.1502 51.4618
RightHand  -0.373297 7.7289 -3.66387
LeftUpLeg  5.68866 2.78544 0.740226
LeftLeg  -4.93087 52.9445 -4.52723
LeftFoot  -2.02838 0.21455 -2.49041
LeftToes  4.7643e-008 1.47522e-008 1.32869e-009
422
root  -3.07299 40.9047 1.21285 177.512 -53.584 -176.451
RightUpLeg  -2.96349 2.28676 0.998199
RightLeg  -1.9348 9.45257 -0.513807
RightFoot  4.9957 -0.767502 5.58045
RightToes  -3.10678e-008 1.75238e-005 3.56266e-009
Spine  10.8136 -7.57678 -9.67334
Spine1  -12.3816 -9.15072 15.5461
HEad  -8.94382 -15.9322 2.3988
LeftShoulder1  0.821425 -0.0299511 -16.5105
LeftArm  -16.498 -6.29463 -48.0249
LeftForeArm  108.45 -80.311 -97.8612
LeftHand  -0.522508 -4.61754 6.35133
RightShoulder  0.712848 -0.526013 17.4602
RightArm  -3.63447 -4.00264 47.7521
RightForeArm  56.1184 77.9861 57.4968
RightHand  -0.450372 7.93708 -4.28328
LeftUpLeg  5.80182 2.74968 0.963568
LeftLeg  -5.31681 52.0206 -4.68115
LeftFoot  -1.76644 0.208899 -2.3668
LeftToes  4.7643e-008 1.47522e-008 1.32869e-009
423
root  -3.06063 40.917 1.09442 177.611 -54.9953 -176.336
RightUpLeg  -2.68312 2.02872 0.941055
RightLeg  -2.46836 8.24808 -0.28539
RightFoot  4.96264 -0.724813 5.29348
RightToes  -3.10678e-008 1.75238e-005 3.56266e-009
Spine  10.4631 -7.37572 -9.15395
Spine1  -12.359 -8.81437 14.4121
HEad  -9.08212 -16.1562 3.19656
LeftShoulder1  0.875296 -0.292156 -16.305
LeftArm  -17.1325 -4.63656 -48.1077
LeftForeArm  108.159 -80.3414 -97.2174
LeftHand  -0.528085 -5.07829 6.15338
RightShoulder  0.627021 -0.832164 16.9684
RightArm  -6.50408 -2.05278 47.8697
RightForeArm  59.9058 78.4744 61.9478
RightHand  -0.488263 8.08878 -4.56671
LeftUpLeg  5.53861 2.62906 1.14115
LeftLeg  -5.24946 50.745 -4.42848
LeftFoot  -1.5132 0.227859 -2.54482
LeftToes  4.7643e-008 1.47522e-008 1.32869e-009
424
root  -3.04524 40.9319 0.959931 177.408 -56.7424 -175.891
RightUpLeg  -2.26403 1.8728 1.04601
RightLeg  -3.17363 6.53463 0.025727
RightFoot  5.06203 -0.685049 4.99023
RightToes  -3.10678e-008 1.75238e-005 3.56266e-009
Spine  9.87088 -7.38918 -8.71625
Spine1  -11.7121 -8.78237 13.4144
HEad  -8.92862 -16.6348 3.43116
LeftShoulder1  0.880564 -0.305809 -16.3667
LeftArm  -17.9392 -4.67337 -48.2794
LeftForeArm  110.234 -80.3078 -99.0751
LeftHand  -0.485609 -4.92675 5.75408
RightShoulder  0.590089 -0.957883 16.6611
RightArm  -8.75283 -1.04605 47.4991
RightForeArm  60.6125 78.5732 63.2306
RightHand  -0.410336 8.12727 -3.87881
LeftUpLeg  5.19716 2.61756 1.55394
LeftLeg  -4.90577 49.0019 -3.93072
LeftFoot  -1.25131 0.242942 -2.6668
LeftToes  4.7643e-008 1.47522e-008 1.32869e-009
425
root  -3.04259 40.9497 0.808229 177.269 -58.7931 -175.537
RightUpLeg  -1.79231 1.65397 1.08664
RightLeg  -3.8659 4.52774 0.400586
RightFoot  5.08071 -0.617385 4.51689
RightToes  -3.10678e-008 1.75238e-005 3.56266e-009
Spine  9.24563 -7.48305 -8.81939
Spine1  -11.1424 -8.88243 13.0985
HEad  -8.94094 -15.6617 3.74281
LeftShoulder1  0.875719 -0.299378 -16.2645
LeftArm  -18.1346 -5.19598 -48.7185
LeftForeArm  111.856 -80.2056 -101.403
LeftHand  -0.598513 -5.07431 6.94634
RightShoulder  0.619482 -0.831766 16.6236
RightArm  -9.85254 -1.3976 46.1358
RightForeArm  60.5647 78.537 62.5807
RightHand  -0.639156 7.95381 -5.90645
LeftUpLeg  5.00802 2.53122 1.88766
LeftLeg  -5.07999 47.0384 -3.79597
LeftFoot  -0.899855 0.258926 -2.77491
LeftToes  4.7643e-008 1.47522e-008 1.32869e-009
